<mxfile host="app.diagrams.net" modified="2022-05-25T08:15:34.080Z" agent="5.0 (Windows NT 10.0; Win64; x64) AppleWebKit/537.36 (KHTML, like Gecko) Chrome/101.0.4951.67 Safari/537.36" etag="RWDZ1IGYBQtigMTnvyln" version="18.0.3" type="github">
  <diagram id="eo7FqUjUYHY41q8pC497" name="Page-1">
    <mxGraphModel dx="865" dy="456" grid="1" gridSize="10" guides="1" tooltips="1" connect="1" arrows="1" fold="1" page="1" pageScale="1" pageWidth="1600" pageHeight="900" math="0" shadow="0">
      <root>
        <mxCell id="0" />
        <mxCell id="1" parent="0" />
        <mxCell id="FXOjFvvzhF7iARIzAI1o-14" style="rounded=0;orthogonalLoop=1;jettySize=auto;html=1;exitX=1;exitY=0.3333333333333333;exitDx=0;exitDy=0;exitPerimeter=0;entryX=0;entryY=0.5;entryDx=0;entryDy=0;endArrow=none;endFill=0;" edge="1" parent="1" source="FXOjFvvzhF7iARIzAI1o-6" target="FXOjFvvzhF7iARIzAI1o-13">
          <mxGeometry relative="1" as="geometry" />
        </mxCell>
        <mxCell id="FXOjFvvzhF7iARIzAI1o-6" value="User" style="shape=umlActor;verticalLabelPosition=bottom;verticalAlign=top;html=1;outlineConnect=0;" vertex="1" parent="1">
          <mxGeometry x="100" y="150" width="30" height="60" as="geometry" />
        </mxCell>
        <mxCell id="FXOjFvvzhF7iARIzAI1o-21" style="edgeStyle=none;rounded=0;orthogonalLoop=1;jettySize=auto;html=1;exitX=0.5;exitY=0;exitDx=0;exitDy=0;entryX=0;entryY=0.5;entryDx=0;entryDy=0;endArrow=none;endFill=0;" edge="1" parent="1" source="FXOjFvvzhF7iARIzAI1o-13" target="FXOjFvvzhF7iARIzAI1o-16">
          <mxGeometry relative="1" as="geometry" />
        </mxCell>
        <mxCell id="FXOjFvvzhF7iARIzAI1o-22" style="edgeStyle=none;rounded=0;orthogonalLoop=1;jettySize=auto;html=1;entryX=0;entryY=0.5;entryDx=0;entryDy=0;endArrow=none;endFill=0;" edge="1" parent="1" source="FXOjFvvzhF7iARIzAI1o-13" target="FXOjFvvzhF7iARIzAI1o-18">
          <mxGeometry relative="1" as="geometry" />
        </mxCell>
        <mxCell id="FXOjFvvzhF7iARIzAI1o-23" style="edgeStyle=none;rounded=0;orthogonalLoop=1;jettySize=auto;html=1;entryX=0;entryY=0.5;entryDx=0;entryDy=0;endArrow=none;endFill=0;" edge="1" parent="1" source="FXOjFvvzhF7iARIzAI1o-13" target="FXOjFvvzhF7iARIzAI1o-17">
          <mxGeometry relative="1" as="geometry" />
        </mxCell>
        <mxCell id="FXOjFvvzhF7iARIzAI1o-26" style="edgeStyle=none;rounded=0;orthogonalLoop=1;jettySize=auto;html=1;entryX=0;entryY=0.5;entryDx=0;entryDy=0;endArrow=none;endFill=0;" edge="1" parent="1" source="FXOjFvvzhF7iARIzAI1o-13" target="FXOjFvvzhF7iARIzAI1o-25">
          <mxGeometry relative="1" as="geometry" />
        </mxCell>
        <mxCell id="FXOjFvvzhF7iARIzAI1o-27" style="edgeStyle=none;rounded=0;orthogonalLoop=1;jettySize=auto;html=1;exitX=0.5;exitY=1;exitDx=0;exitDy=0;endArrow=none;endFill=0;entryX=0;entryY=0.5;entryDx=0;entryDy=0;" edge="1" parent="1" source="FXOjFvvzhF7iARIzAI1o-13" target="FXOjFvvzhF7iARIzAI1o-28">
          <mxGeometry relative="1" as="geometry">
            <mxPoint x="350" y="440" as="targetPoint" />
          </mxGeometry>
        </mxCell>
        <mxCell id="FXOjFvvzhF7iARIzAI1o-54" style="edgeStyle=none;rounded=0;orthogonalLoop=1;jettySize=auto;html=1;entryX=0;entryY=0.5;entryDx=0;entryDy=0;startArrow=none;startFill=0;endArrow=none;endFill=0;" edge="1" parent="1" source="FXOjFvvzhF7iARIzAI1o-13" target="FXOjFvvzhF7iARIzAI1o-53">
          <mxGeometry relative="1" as="geometry" />
        </mxCell>
        <mxCell id="FXOjFvvzhF7iARIzAI1o-57" style="edgeStyle=none;rounded=0;orthogonalLoop=1;jettySize=auto;html=1;entryX=0;entryY=0;entryDx=0;entryDy=0;startArrow=none;startFill=0;endArrow=none;endFill=0;" edge="1" parent="1" source="FXOjFvvzhF7iARIzAI1o-13" target="FXOjFvvzhF7iARIzAI1o-56">
          <mxGeometry relative="1" as="geometry" />
        </mxCell>
        <mxCell id="FXOjFvvzhF7iARIzAI1o-62" style="edgeStyle=none;rounded=0;orthogonalLoop=1;jettySize=auto;html=1;entryX=0.5;entryY=0;entryDx=0;entryDy=0;startArrow=none;startFill=0;endArrow=none;endFill=0;" edge="1" parent="1" source="FXOjFvvzhF7iARIzAI1o-13" target="FXOjFvvzhF7iARIzAI1o-61">
          <mxGeometry relative="1" as="geometry" />
        </mxCell>
        <mxCell id="FXOjFvvzhF7iARIzAI1o-13" value="Login" style="ellipse;whiteSpace=wrap;html=1;" vertex="1" parent="1">
          <mxGeometry x="190" y="150" width="70" height="40" as="geometry" />
        </mxCell>
        <mxCell id="FXOjFvvzhF7iARIzAI1o-16" value="Logout" style="ellipse;whiteSpace=wrap;html=1;" vertex="1" parent="1">
          <mxGeometry x="240" y="50" width="70" height="40" as="geometry" />
        </mxCell>
        <mxCell id="FXOjFvvzhF7iARIzAI1o-24" value="Include" style="edgeStyle=none;rounded=0;orthogonalLoop=1;jettySize=auto;html=1;exitX=0.5;exitY=1;exitDx=0;exitDy=0;entryX=0.5;entryY=0;entryDx=0;entryDy=0;endArrow=block;endFill=1;dashed=1;" edge="1" parent="1" source="FXOjFvvzhF7iARIzAI1o-17" target="FXOjFvvzhF7iARIzAI1o-19">
          <mxGeometry x="0.1504" y="20" relative="1" as="geometry">
            <mxPoint as="offset" />
          </mxGeometry>
        </mxCell>
        <mxCell id="FXOjFvvzhF7iARIzAI1o-17" value="Select Route" style="ellipse;whiteSpace=wrap;html=1;" vertex="1" parent="1">
          <mxGeometry x="365" y="140" width="70" height="40" as="geometry" />
        </mxCell>
        <mxCell id="FXOjFvvzhF7iARIzAI1o-18" value="Check Bus Arrive Time" style="ellipse;whiteSpace=wrap;html=1;" vertex="1" parent="1">
          <mxGeometry x="305" y="90" width="160" height="40" as="geometry" />
        </mxCell>
        <mxCell id="FXOjFvvzhF7iARIzAI1o-19" value="Choose Station" style="ellipse;whiteSpace=wrap;html=1;" vertex="1" parent="1">
          <mxGeometry x="400" y="220" width="70" height="40" as="geometry" />
        </mxCell>
        <mxCell id="FXOjFvvzhF7iARIzAI1o-25" value="Edit Account Info" style="ellipse;whiteSpace=wrap;html=1;" vertex="1" parent="1">
          <mxGeometry x="240" y="420" width="90" height="40" as="geometry" />
        </mxCell>
        <mxCell id="FXOjFvvzhF7iARIzAI1o-28" value="Give Feedback" style="ellipse;whiteSpace=wrap;html=1;" vertex="1" parent="1">
          <mxGeometry x="150" y="450" width="70" height="40" as="geometry" />
        </mxCell>
        <mxCell id="FXOjFvvzhF7iARIzAI1o-47" style="edgeStyle=none;rounded=0;orthogonalLoop=1;jettySize=auto;html=1;entryX=1;entryY=0.5;entryDx=0;entryDy=0;startArrow=none;startFill=0;endArrow=none;endFill=0;" edge="1" parent="1" source="FXOjFvvzhF7iARIzAI1o-36" target="FXOjFvvzhF7iARIzAI1o-42">
          <mxGeometry relative="1" as="geometry" />
        </mxCell>
        <mxCell id="FXOjFvvzhF7iARIzAI1o-48" style="edgeStyle=none;rounded=0;orthogonalLoop=1;jettySize=auto;html=1;entryX=1;entryY=0.5;entryDx=0;entryDy=0;startArrow=none;startFill=0;endArrow=none;endFill=0;" edge="1" parent="1" source="FXOjFvvzhF7iARIzAI1o-36" target="FXOjFvvzhF7iARIzAI1o-43">
          <mxGeometry relative="1" as="geometry" />
        </mxCell>
        <mxCell id="FXOjFvvzhF7iARIzAI1o-49" style="edgeStyle=none;rounded=0;orthogonalLoop=1;jettySize=auto;html=1;entryX=1;entryY=0.5;entryDx=0;entryDy=0;startArrow=none;startFill=0;endArrow=none;endFill=0;" edge="1" parent="1" source="FXOjFvvzhF7iARIzAI1o-36" target="FXOjFvvzhF7iARIzAI1o-44">
          <mxGeometry relative="1" as="geometry" />
        </mxCell>
        <mxCell id="FXOjFvvzhF7iARIzAI1o-55" style="edgeStyle=none;rounded=0;orthogonalLoop=1;jettySize=auto;html=1;entryX=1;entryY=0.5;entryDx=0;entryDy=0;startArrow=none;startFill=0;endArrow=none;endFill=0;" edge="1" parent="1" source="FXOjFvvzhF7iARIzAI1o-36" target="FXOjFvvzhF7iARIzAI1o-53">
          <mxGeometry relative="1" as="geometry" />
        </mxCell>
        <mxCell id="FXOjFvvzhF7iARIzAI1o-36" value="Admin&lt;br&gt;" style="shape=umlActor;verticalLabelPosition=bottom;verticalAlign=top;html=1;outlineConnect=0;" vertex="1" parent="1">
          <mxGeometry x="850" y="190" width="30" height="60" as="geometry" />
        </mxCell>
        <mxCell id="FXOjFvvzhF7iARIzAI1o-50" style="edgeStyle=none;rounded=0;orthogonalLoop=1;jettySize=auto;html=1;entryX=0.5;entryY=0;entryDx=0;entryDy=0;startArrow=none;startFill=0;endArrow=classic;endFill=1;dashed=1;" edge="1" parent="1" source="FXOjFvvzhF7iARIzAI1o-42" target="FXOjFvvzhF7iARIzAI1o-43">
          <mxGeometry relative="1" as="geometry" />
        </mxCell>
        <mxCell id="FXOjFvvzhF7iARIzAI1o-42" value="Register Route" style="ellipse;whiteSpace=wrap;html=1;" vertex="1" parent="1">
          <mxGeometry x="610" y="200" width="70" height="40" as="geometry" />
        </mxCell>
        <mxCell id="FXOjFvvzhF7iARIzAI1o-43" value="Add Station" style="ellipse;whiteSpace=wrap;html=1;" vertex="1" parent="1">
          <mxGeometry x="550" y="150" width="70" height="40" as="geometry" />
        </mxCell>
        <mxCell id="FXOjFvvzhF7iARIzAI1o-44" value="Add User" style="ellipse;whiteSpace=wrap;html=1;" vertex="1" parent="1">
          <mxGeometry x="610" y="330" width="70" height="40" as="geometry" />
        </mxCell>
        <mxCell id="FXOjFvvzhF7iARIzAI1o-51" value="Include" style="text;html=1;align=center;verticalAlign=middle;resizable=0;points=[];autosize=1;strokeColor=none;fillColor=none;" vertex="1" parent="1">
          <mxGeometry x="650" y="250" width="50" height="20" as="geometry" />
        </mxCell>
        <mxCell id="FXOjFvvzhF7iARIzAI1o-53" value="Top-up Balance" style="ellipse;whiteSpace=wrap;html=1;" vertex="1" parent="1">
          <mxGeometry x="490" y="310" width="70" height="40" as="geometry" />
        </mxCell>
        <mxCell id="FXOjFvvzhF7iARIzAI1o-59" style="edgeStyle=none;rounded=0;orthogonalLoop=1;jettySize=auto;html=1;entryX=0;entryY=0;entryDx=0;entryDy=0;startArrow=none;startFill=0;endArrow=classic;endFill=1;dashed=1;" edge="1" parent="1" source="FXOjFvvzhF7iARIzAI1o-56" target="FXOjFvvzhF7iARIzAI1o-58">
          <mxGeometry relative="1" as="geometry" />
        </mxCell>
        <mxCell id="FXOjFvvzhF7iARIzAI1o-56" value="Check in" style="ellipse;whiteSpace=wrap;html=1;" vertex="1" parent="1">
          <mxGeometry x="305" y="270" width="70" height="40" as="geometry" />
        </mxCell>
        <mxCell id="FXOjFvvzhF7iARIzAI1o-64" style="edgeStyle=none;rounded=0;orthogonalLoop=1;jettySize=auto;html=1;entryX=0;entryY=0;entryDx=0;entryDy=0;startArrow=none;startFill=0;endArrow=classic;endFill=1;dashed=1;" edge="1" parent="1" source="FXOjFvvzhF7iARIzAI1o-58" target="FXOjFvvzhF7iARIzAI1o-63">
          <mxGeometry relative="1" as="geometry" />
        </mxCell>
        <mxCell id="FXOjFvvzhF7iARIzAI1o-65" value="Include" style="edgeLabel;html=1;align=center;verticalAlign=middle;resizable=0;points=[];" vertex="1" connectable="0" parent="FXOjFvvzhF7iARIzAI1o-64">
          <mxGeometry x="-0.3351" y="-5" relative="1" as="geometry">
            <mxPoint x="-9" y="11" as="offset" />
          </mxGeometry>
        </mxCell>
        <mxCell id="FXOjFvvzhF7iARIzAI1o-58" value="Locate" style="ellipse;whiteSpace=wrap;html=1;" vertex="1" parent="1">
          <mxGeometry x="400" y="350" width="70" height="40" as="geometry" />
        </mxCell>
        <mxCell id="FXOjFvvzhF7iARIzAI1o-60" value="Include" style="text;html=1;align=center;verticalAlign=middle;resizable=0;points=[];autosize=1;strokeColor=none;fillColor=none;" vertex="1" parent="1">
          <mxGeometry x="375" y="310" width="50" height="20" as="geometry" />
        </mxCell>
        <mxCell id="FXOjFvvzhF7iARIzAI1o-61" value="Checkout" style="ellipse;whiteSpace=wrap;html=1;" vertex="1" parent="1">
          <mxGeometry x="270" y="350" width="70" height="40" as="geometry" />
        </mxCell>
        <mxCell id="FXOjFvvzhF7iARIzAI1o-63" value="View Seats Available" style="ellipse;whiteSpace=wrap;html=1;" vertex="1" parent="1">
          <mxGeometry x="500" y="410" width="70" height="40" as="geometry" />
        </mxCell>
      </root>
    </mxGraphModel>
  </diagram>
</mxfile>
